HIERARCHY
ROOT mixamorig:Hips
{
	OFFSET 0.000000 201.639420 0.000000
	CHANNELS 6 Xposition Yposition Zposition Xrotation Yrotation Zrotation
	JOINT mixamorig:Spine
	{
		OFFSET 0.006200 19.524994 -2.481800
		CHANNELS 3 Xrotation Yrotation Zrotation
		JOINT mixamorig:Spine1
		{
			OFFSET -0.000900 22.835007 -2.825400
			CHANNELS 3 Xrotation Yrotation Zrotation
			JOINT mixamorig:Spine2
			{
				OFFSET -0.020600 26.552490 -3.193300
				CHANNELS 3 Xrotation Yrotation Zrotation
				JOINT mixamorig:Neck
				{
					OFFSET -0.060000 30.701813 1.352200
					CHANNELS 3 Xrotation Yrotation Zrotation
					JOINT mixamorig:Head
					{
						OFFSET -0.087200 22.547607 3.670900
						CHANNELS 3 Xrotation Yrotation Zrotation
						JOINT mixamorig:HeadTop_End
						{
							OFFSET -0.830600 40.355194 7.893500
							CHANNELS 3 Xrotation Yrotation Zrotation
							End Site
							{
								OFFSET 0.000000 30.592346 0.000000
							}
						}
						JOINT mixamorig:RightEye
						{
							OFFSET -6.302100 18.118591 16.197100
							CHANNELS 3 Xrotation Yrotation Zrotation
							End Site
							{
								OFFSET 0.000000 30.592346 0.000000
							}
						}
						JOINT mixamorig:LeftEye
						{
							OFFSET 6.741500 18.382690 16.401899
							CHANNELS 3 Xrotation Yrotation Zrotation
							End Site
							{
								OFFSET 0.000000 30.592346 0.000000
							}
						}
					}
				}
				JOINT mixamorig:LeftShoulder
				{
					OFFSET 11.924900 18.230499 1.425400
					CHANNELS 3 Xrotation Yrotation Zrotation
					JOINT mixamorig:LeftArm
					{
						OFFSET 25.435989 -0.697632 -5.229300
						CHANNELS 3 Xrotation Yrotation Zrotation
						JOINT mixamorig:LeftForeArm
						{
							OFFSET 54.684776 0.000000 0.000000
							CHANNELS 3 Xrotation Yrotation Zrotation
							JOINT mixamorig:LeftHand
							{
								OFFSET 55.098175 0.000000 0.000000
								CHANNELS 3 Xrotation Yrotation Zrotation
								JOINT mixamorig:LeftHandMiddle1
								{
									OFFSET 23.369751 0.000000 0.000000
									CHANNELS 3 Xrotation Yrotation Zrotation
									JOINT mixamorig:LeftHandMiddle2
									{
										OFFSET 6.378677 0.000000 0.000000
										CHANNELS 3 Xrotation Yrotation Zrotation
										JOINT mixamorig:LeftHandMiddle3
										{
											OFFSET 6.148331 0.000000 0.000000
											CHANNELS 3 Xrotation Yrotation Zrotation
											JOINT mixamorig:LeftHandMiddle4
											{
												OFFSET 6.582504 0.000000 0.000000
												CHANNELS 3 Xrotation Yrotation Zrotation
												End Site
												{
													OFFSET -1.168900 6.395691 1.028606
												}
											}
										}
									}
								}
								JOINT mixamorig:LeftHandThumb1
								{
									OFFSET 7.235672 -3.848206 5.434273
									CHANNELS 3 Xrotation Yrotation Zrotation
									JOINT mixamorig:LeftHandThumb2
									{
										OFFSET 6.568451 -3.792297 3.792300
										CHANNELS 3 Xrotation Yrotation Zrotation
										JOINT mixamorig:LeftHandThumb3
										{
											OFFSET 6.063080 -3.500519 3.500518
											CHANNELS 3 Xrotation Yrotation Zrotation
											JOINT mixamorig:LeftHandThumb4
											{
												OFFSET 4.793182 -2.767334 2.767349
												CHANNELS 3 Xrotation Yrotation Zrotation
												End Site
												{
													OFFSET 0.101639 6.054260 1.275483
												}
											}
										}
									}
								}
								JOINT mixamorig:LeftHandIndex1
								{
									OFFSET 23.101074 -0.309540 4.992809
									CHANNELS 3 Xrotation Yrotation Zrotation
									JOINT mixamorig:LeftHandIndex2
									{
										OFFSET 6.226883 0.000000 0.000000
										CHANNELS 3 Xrotation Yrotation Zrotation
										JOINT mixamorig:LeftHandIndex3
										{
											OFFSET 6.094330 0.000000 0.000000
											CHANNELS 3 Xrotation Yrotation Zrotation
											JOINT mixamorig:LeftHandIndex4
											{
												OFFSET 5.482605 0.000000 0.000000
												CHANNELS 3 Xrotation Yrotation Zrotation
												End Site
												{
													OFFSET -1.427902 5.233032 0.797164
												}
											}
										}
									}
								}
								JOINT mixamorig:LeftHandRing1
								{
									OFFSET 22.299240 0.021149 -3.964172
									CHANNELS 3 Xrotation Yrotation Zrotation
									JOINT mixamorig:LeftHandRing2
									{
										OFFSET 6.321869 0.000000 0.000000
										CHANNELS 3 Xrotation Yrotation Zrotation
										JOINT mixamorig:LeftHandRing3
										{
											OFFSET 5.899796 0.000000 0.000000
											CHANNELS 3 Xrotation Yrotation Zrotation
											JOINT mixamorig:LeftHandRing4
											{
												OFFSET 6.517899 0.000000 0.000000
												CHANNELS 3 Xrotation Yrotation Zrotation
												End Site
												{
													OFFSET -1.637299 6.232208 0.980890
												}
											}
										}
									}
								}
								JOINT mixamorig:LeftHandPinky1
								{
									OFFSET 20.463791 -0.302338 -8.562233
									CHANNELS 3 Xrotation Yrotation Zrotation
									JOINT mixamorig:LeftHandPinky2
									{
										OFFSET 6.908646 0.000000 0.000000
										CHANNELS 3 Xrotation Yrotation Zrotation
										JOINT mixamorig:LeftHandPinky3
										{
											OFFSET 4.622849 0.000000 0.000000
											CHANNELS 3 Xrotation Yrotation Zrotation
											JOINT mixamorig:LeftHandPinky4
											{
												OFFSET 5.216080 0.000000 0.000000
												CHANNELS 3 Xrotation Yrotation Zrotation
												End Site
												{
													OFFSET -0.606308 5.116241 0.814926
												}
											}
										}
									}
								}
							}
						}
					}
				}
				JOINT mixamorig:RightShoulder
				{
					OFFSET -12.001300 18.284088 1.348900
					CHANNELS 3 Xrotation Yrotation Zrotation
					JOINT mixamorig:RightArm
					{
						OFFSET -25.308500 -0.751312 -5.164599
						CHANNELS 3 Xrotation Yrotation Zrotation
						JOINT mixamorig:RightForeArm
						{
							OFFSET -54.684429 0.000000 0.000000
							CHANNELS 3 Xrotation Yrotation Zrotation
							JOINT mixamorig:RightHand
							{
								OFFSET -55.150291 0.000000 0.000000
								CHANNELS 3 Xrotation Yrotation Zrotation
								JOINT mixamorig:RightHandMiddle1
								{
									OFFSET -23.317566 0.000000 0.000000
									CHANNELS 3 Xrotation Yrotation Zrotation
									JOINT mixamorig:RightHandMiddle2
									{
										OFFSET -6.378403 0.000000 0.000000
										CHANNELS 3 Xrotation Yrotation Zrotation
										JOINT mixamorig:RightHandMiddle3
										{
											OFFSET -6.148193 0.000000 0.000000
											CHANNELS 3 Xrotation Yrotation Zrotation
											JOINT mixamorig:RightHandMiddle4
											{
												OFFSET -6.583389 0.000000 0.000000
												CHANNELS 3 Xrotation Yrotation Zrotation
												End Site
												{
													OFFSET 1.171692 6.395905 1.029786
												}
											}
										}
									}
								}
								JOINT mixamorig:RightHandThumb1
								{
									OFFSET -7.190521 -3.860474 5.435846
									CHANNELS 3 Xrotation Yrotation Zrotation
									JOINT mixamorig:RightHandThumb2
									{
										OFFSET -6.567429 -3.791718 3.791708
										CHANNELS 3 Xrotation Yrotation Zrotation
										JOINT mixamorig:RightHandThumb3
										{
											OFFSET -6.062469 -3.500153 3.500166
											CHANNELS 3 Xrotation Yrotation Zrotation
											JOINT mixamorig:RightHandThumb4
											{
												OFFSET -4.792618 -2.767029 2.767022
												CHANNELS 3 Xrotation Yrotation Zrotation
												End Site
												{
													OFFSET -0.100327 6.053253 1.276754
												}
											}
										}
									}
								}
								JOINT mixamorig:RightHandIndex1
								{
									OFFSET -23.048981 -0.310791 4.992554
									CHANNELS 3 Xrotation Yrotation Zrotation
									JOINT mixamorig:RightHandIndex2
									{
										OFFSET -6.227539 0.000000 0.000000
										CHANNELS 3 Xrotation Yrotation Zrotation
										JOINT mixamorig:RightHandIndex3
										{
											OFFSET -6.095047 0.000000 0.000000
											CHANNELS 3 Xrotation Yrotation Zrotation
											JOINT mixamorig:RightHandIndex4
											{
												OFFSET -5.484772 0.000000 0.000000
												CHANNELS 3 Xrotation Yrotation Zrotation
												End Site
												{
													OFFSET 1.420593 5.237305 0.797056
												}
											}
										}
									}
								}
								JOINT mixamorig:RightHandRing1
								{
									OFFSET -22.246323 0.020569 -3.963762
									CHANNELS 3 Xrotation Yrotation Zrotation
									JOINT mixamorig:RightHandRing2
									{
										OFFSET -6.322128 0.000000 0.000000
										CHANNELS 3 Xrotation Yrotation Zrotation
										JOINT mixamorig:RightHandRing3
										{
											OFFSET -5.900024 0.000000 0.000000
											CHANNELS 3 Xrotation Yrotation Zrotation
											JOINT mixamorig:RightHandRing4
											{
												OFFSET -6.518356 0.000000 0.000000
												CHANNELS 3 Xrotation Yrotation Zrotation
												End Site
												{
													OFFSET 1.636398 6.232697 0.982186
												}
											}
										}
									}
								}
								JOINT mixamorig:RightHandPinky1
								{
									OFFSET -20.411011 -0.303314 -8.561701
									CHANNELS 3 Xrotation Yrotation Zrotation
									JOINT mixamorig:RightHandPinky2
									{
										OFFSET -6.907349 0.000000 0.000000
										CHANNELS 3 Xrotation Yrotation Zrotation
										JOINT mixamorig:RightHandPinky3
										{
											OFFSET -4.623840 0.000000 0.000000
											CHANNELS 3 Xrotation Yrotation Zrotation
											JOINT mixamorig:RightHandPinky4
											{
												OFFSET -5.218353 0.000000 0.000000
												CHANNELS 3 Xrotation Yrotation Zrotation
												End Site
												{
													OFFSET 0.602097 5.118835 0.816273
												}
											}
										}
									}
								}
							}
						}
					}
				}
			}
		}
	}
	JOINT mixamorig:LeftUpLeg
	{
		OFFSET 18.168400 -13.561905 -0.039000
		CHANNELS 3 Xrotation Yrotation Zrotation
		JOINT mixamorig:LeftLeg
		{
			OFFSET 0.577358 -80.825211 -3.695000
			CHANNELS 3 Xrotation Yrotation Zrotation
			JOINT mixamorig:LeftFoot
			{
				OFFSET -0.577356 -83.370262 -6.520700
				CHANNELS 3 Xrotation Yrotation Zrotation
				JOINT mixamorig:LeftToeBase
				{
					OFFSET 0.750401 -20.798306 25.135401
					CHANNELS 3 Xrotation Yrotation Zrotation
					JOINT mixamorig:LeftToe_End
					{
						OFFSET -0.000500 0.001200 19.917799
						CHANNELS 3 Xrotation Yrotation Zrotation
						End Site
						{
							OFFSET 0.000000 19.917805 0.000000
						}
					}
				}
			}
		}
	}
	JOINT mixamorig:RightUpLeg
	{
		OFFSET -18.162500 -13.585098 -0.041000
		CHANNELS 3 Xrotation Yrotation Zrotation
		JOINT mixamorig:RightLeg
		{
			OFFSET -0.595024 -80.945297 -3.631900
			CHANNELS 3 Xrotation Yrotation Zrotation
			JOINT mixamorig:RightFoot
			{
				OFFSET 0.595024 -83.218193 -6.561200
				CHANNELS 3 Xrotation Yrotation Zrotation
				JOINT mixamorig:RightToeBase
				{
					OFFSET -0.753601 -20.807106 25.115000
					CHANNELS 3 Xrotation Yrotation Zrotation
					JOINT mixamorig:RightToe_End
					{
						OFFSET 0.000299 0.001700 19.918200
						CHANNELS 3 Xrotation Yrotation Zrotation
						End Site
						{
							OFFSET 0.000000 19.918203 0.000000
						}
					}
				}
			}
		}
	}
}
MOTION
Frames: 5
Frame Time: 0.033333
15.099364 162.559570 121.722855 57.142363 5.166887 -4.980549 -3.212716 -0.421694 0.320469 -6.420332 -0.306305 1.387887 -6.420317 -0.306304 1.387888 5.786674 1.570533 -7.732224 -30.380412 -10.053804 1.798635 0.000000 -0.000000 0.000000 0.000000 -0.000000 0.000000 0.000000 -0.000000 0.000000 8.374030 -22.690384 19.561698 -67.034967 -47.610401 -33.400844 2.849156 -25.245141 4.609506 21.173962 5.538845 83.048209 -1.607320 -1.437568 -44.852841 -8.864454 -8.229487 -108.221629 -0.000002 0.000002 -0.000001 -0.000002 0.000001 0.000001 -22.329896 -10.232713 -0.665729 -13.008793 33.638791 5.466814 -0.000007 -0.000003 -0.000017 -0.000003 -0.000001 -0.000002 -3.249118 -3.487671 -45.487687 -11.741056 -5.662328 -117.786325 -0.000005 -0.000001 -0.000002 -0.000000 -0.000001 -0.000001 1.621470 4.447399 -42.845240 -1.055309 -8.990336 -99.406320 0.000001 0.000006 0.000002 0.000001 0.000002 0.000002 2.581083 6.861451 -50.366378 0.502850 -8.788570 -83.370300 0.000003 -0.000008 -0.000006 0.000000 0.000001 -0.000004 8.901518 20.486988 -20.583255 -53.878984 25.301075 21.646686 4.850160 35.066758 -9.818788 23.246877 -10.910897 -72.584892 -2.051670 0.230802 37.937046 -6.364980 7.372391 96.577120 0.000002 -0.000002 0.000001 0.000001 -0.000001 -0.000002 -31.480574 10.386547 -14.209304 -13.008669 -33.638849 -5.466796 0.000007 0.000017 0.000010 0.000001 0.000001 -0.000000 -3.485977 1.851571 32.874343 -8.875932 5.007765 106.188384 -0.000004 -0.000007 -0.000007 0.000001 0.000000 0.000002 2.774055 -3.553508 41.586976 -1.339037 10.439956 83.973358 -0.000001 -0.000004 0.000009 -0.000000 0.000001 0.000003 4.714838 -4.516871 49.238718 -1.408714 11.737787 71.642189 0.000003 0.000009 -0.000005 -0.000002 0.000000 -0.000002 -33.377598 4.530613 1.577275 27.133487 -2.822588 -0.118662 -3.278012 0.037197 -1.545673 -48.160258 -1.159865 -1.609867 -0.000000 0.000000 -0.000000 -105.761395 3.253406 -9.944541 88.586099 7.025808 0.030433 -2.530656 -0.921185 15.774892 -23.865823 -2.643205 -5.505912 0.000000 -0.000000 -0.000000 
14.464584 162.677307 125.306709 56.186174 5.482490 -4.968695 -3.081307 -0.423273 0.297703 -6.157063 -0.378793 1.313430 -6.157070 -0.378793 1.313429 6.003318 1.308137 -7.513654 -30.339017 -10.054443 1.962350 -0.000001 0.000000 0.000000 -0.000001 0.000000 0.000000 -0.000001 0.000000 0.000000 8.155651 -22.714178 19.150703 -67.669157 -48.044807 -34.738147 3.031503 -24.259546 4.382538 21.526369 5.009171 83.734492 -1.607292 -1.437558 -44.852838 -8.864451 -8.229519 -108.221588 0.000003 0.000003 0.000001 -0.000001 -0.000000 -0.000001 -22.329920 -10.232727 -0.665751 -13.008822 33.638808 5.466872 -0.000003 -0.000007 -0.000013 0.000002 -0.000001 -0.000000 -3.249108 -3.487670 -45.487687 -11.741043 -5.662337 -117.786243 -0.000003 -0.000001 -0.000003 0.000001 0.000001 -0.000001 1.621473 4.447388 -42.845213 -1.055322 -8.990340 -99.406252 0.000002 0.000006 0.000003 0.000001 -0.000001 -0.000005 2.581084 6.861436 -50.366358 0.502855 -8.788545 -83.370232 -0.000001 -0.000008 0.000001 0.000000 -0.000001 -0.000001 9.026500 20.885923 -20.211397 -53.329253 24.486843 21.661889 5.592666 36.385541 -10.433028 23.081709 -11.728782 -72.718688 -2.051655 0.230798 37.937104 -6.364950 7.372395 96.577024 0.000005 -0.000001 0.000000 0.000001 0.000000 -0.000001 -31.480581 10.386545 -14.209309 -13.008699 -33.638849 -5.466835 0.000005 0.000017 0.000008 -0.000002 -0.000001 0.000003 -3.485983 1.851562 32.874411 -8.875897 5.007763 106.188254 -0.000006 -0.000007 -0.000002 0.000002 -0.000001 -0.000001 2.774061 -3.553498 41.587017 -1.339027 10.439953 83.973235 0.000000 -0.000004 0.000003 -0.000000 -0.000000 0.000004 4.714842 -4.516878 49.238772 -1.408696 11.737762 71.642039 0.000002 0.000009 -0.000008 -0.000001 0.000000 0.000001 -30.004085 4.757193 1.742350 23.492673 -2.678720 -0.114343 1.405800 -0.028847 -1.042263 -51.333793 -0.997956 -2.634506 0.000000 0.000001 0.000000 -102.758611 1.323871 -9.561697 85.882157 3.948597 -0.055531 0.277894 -0.562744 16.399663 -36.735295 -3.982694 -5.857834 -0.000000 -0.000001 0.000000 
13.950815 162.432343 129.121078 55.119425 6.011611 -4.819580 -2.974505 -0.422691 0.286204 -5.942878 -0.451259 1.271646 -5.942881 -0.451261 1.271648 6.252283 1.025800 -7.306499 -30.237907 -10.105442 2.228268 0.000001 -0.000000 0.000000 0.000001 -0.000000 0.000000 0.000001 -0.000000 0.000000 7.881497 -22.780600 18.557354 -68.418647 -48.374726 -36.423357 3.070937 -23.150851 4.132379 21.975821 4.310112 84.492719 -1.607303 -1.437567 -44.852828 -8.864464 -8.229518 -108.221568 -0.000000 0.000001 -0.000002 -0.000003 -0.000000 -0.000003 -22.329926 -10.232733 -0.665759 -13.008795 33.638808 5.466859 -0.000001 -0.000006 -0.000010 0.000002 0.000001 -0.000002 -3.249109 -3.487680 -45.487677 -11.741037 -5.662325 -117.786243 -0.000002 -0.000001 0.000000 -0.000000 -0.000001 0.000001 1.621462 4.447382 -42.845213 -1.055308 -8.990362 -99.406252 -0.000001 0.000007 0.000005 0.000000 0.000001 -0.000001 2.581078 6.861434 -50.366361 0.502834 -8.788564 -83.370204 -0.000001 -0.000009 0.000000 -0.000001 -0.000001 -0.000001 9.158212 21.234105 -19.947334 -52.654871 23.606321 21.739089 6.591396 37.906331 -11.235986 23.002861 -12.731917 -72.658883 -2.051692 0.230830 37.937316 -6.364892 7.372399 96.576307 0.000003 -0.000001 -0.000008 0.000000 -0.000000 0.000002 -31.480567 10.386510 -14.209210 -13.008671 -33.638849 -5.466802 0.000004 0.000019 0.000010 0.000001 -0.000000 -0.000002 -3.485999 1.851596 32.874653 -8.875849 5.007796 106.187571 -0.000004 -0.000006 0.000000 -0.000000 -0.000000 -0.000001 2.774039 -3.553474 41.587260 -1.338976 10.439948 83.972572 0.000001 -0.000003 0.000003 0.000000 0.000001 0.000002 4.714813 -4.516851 49.239001 -1.408644 11.737738 71.641397 0.000002 0.000008 -0.000005 0.000001 0.000001 0.000004 -26.174897 4.834742 1.653396 19.391909 -2.491562 -0.094297 6.513084 -0.047078 -0.845354 -54.708839 -1.044132 -3.481107 -0.000000 0.000000 0.000000 -97.789751 -0.483306 -8.107405 84.568513 -0.318682 -0.273632 -7.958124 -1.018248 10.180806 -39.912272 -6.298882 -2.891114 0.000000 -0.000000 -0.000000 
13.544592 162.056915 132.771957 54.242016 6.669713 -4.576306 -2.914205 -0.410889 0.290413 -5.822005 -0.482972 1.290998 -5.821997 -0.482973 1.290999 6.615203 0.747533 -7.087493 -30.143489 -10.175808 2.561310 -0.000001 -0.000000 -0.000000 -0.000001 -0.000000 -0.000000 -0.000001 -0.000000 -0.000000 7.516482 -22.846513 17.674930 -69.609627 -48.835573 -38.462650 2.878211 -21.651947 3.805351 22.635930 3.328680 85.300231 -1.607288 -1.437546 -44.852824 -8.864494 -8.229499 -108.221807 -0.000003 0.000002 -0.000001 -0.000002 -0.000000 -0.000001 -22.329890 -10.232703 -0.665747 -13.008771 33.638798 5.466805 -0.000002 -0.000004 -0.000011 0.000001 0.000001 -0.000000 -3.249099 -3.487659 -45.487684 -11.741074 -5.662316 -117.786489 -0.000002 -0.000001 -0.000002 0.000001 0.000001 -0.000002 1.621469 4.447402 -42.845237 -1.055311 -8.990359 -99.406478 -0.000000 0.000005 0.000005 0.000000 0.000001 0.000002 2.581067 6.861450 -50.366399 0.502841 -8.788579 -83.370443 0.000001 -0.000009 -0.000000 0.000000 0.000000 -0.000002 9.306000 21.605661 -19.753486 -52.009797 22.681397 21.661330 7.751562 39.601925 -12.276317 23.237238 -13.853573 -72.213862 -2.051686 0.230827 37.937336 -6.364866 7.372376 96.576143 0.000002 -0.000002 0.000005 0.000000 -0.000000 0.000001 -31.480509 10.386478 -14.209086 -13.008669 -33.638832 -5.466780 0.000009 0.000016 0.000010 -0.000002 0.000001 0.000001 -3.485985 1.851594 32.874711 -8.875822 5.007779 106.187442 -0.000005 -0.000007 -0.000004 0.000001 -0.000000 -0.000001 2.774044 -3.553473 41.587311 -1.338965 10.439967 83.972402 0.000000 -0.000004 0.000003 -0.000000 -0.000001 -0.000000 4.714829 -4.516866 49.239069 -1.408649 11.737784 71.641342 0.000004 0.000008 -0.000011 -0.000001 -0.000000 -0.000000 -23.253830 4.699600 1.525653 16.316337 -2.358924 -0.053653 12.434064 -0.024844 -1.708563 -60.060736 -1.905366 -3.669038 0.000000 0.000000 -0.000000 -91.879076 -0.920943 -6.897904 82.210172 -3.254483 -0.441879 -19.911441 -1.416982 6.706713 -34.102120 -8.488567 -1.769502 0.000000 -0.000000 -0.000000 
13.251223 162.124268 135.822144 53.706423 7.150012 -4.285652 -2.879289 -0.381599 0.299142 -5.752348 -0.440576 1.355742 -5.752337 -0.440575 1.355741 7.130585 0.499250 -6.875779 -30.042092 -10.254626 2.967662 0.000000 -0.000000 -0.000000 0.000000 -0.000000 -0.000000 0.000000 -0.000000 -0.000000 7.045037 -22.780272 16.493799 -71.062784 -49.387042 -40.565979 2.673589 -20.188801 3.510596 23.421164 2.326368 86.055343 -1.607310 -1.437568 -44.852831 -8.864489 -8.229482 -108.221936 0.000001 0.000002 0.000000 -0.000002 0.000001 -0.000002 -22.329898 -10.232721 -0.665752 -13.008721 33.638777 5.466739 -0.000006 -0.000004 -0.000014 0.000003 0.000001 -0.000000 -3.249096 -3.487665 -45.487704 -11.741087 -5.662333 -117.786626 -0.000004 -0.000000 -0.000003 -0.000000 0.000000 -0.000002 1.621481 4.447407 -42.845261 -1.055332 -8.990366 -99.406682 -0.000000 0.000007 0.000001 -0.000002 -0.000000 -0.000003 2.581075 6.861439 -50.366426 0.502848 -8.788561 -83.370662 0.000002 -0.000008 -0.000001 -0.000001 0.000000 -0.000002 9.485745 22.028098 -19.651641 -51.551860 21.739246 21.547609 8.876249 41.409542 -13.545542 23.840425 -14.990547 -71.519416 -2.051645 0.230788 37.936609 -6.365070 7.372388 96.578110 0.000003 -0.000002 -0.000007 0.000001 -0.000001 -0.000001 -31.480533 10.386617 -14.209327 -13.008674 -33.638846 -5.466804 0.000005 0.000017 0.000010 -0.000002 -0.000001 0.000000 -3.485957 1.851565 32.873957 -8.876025 5.007729 106.189368 -0.000003 -0.000007 0.000005 -0.000000 -0.000000 0.000000 2.774059 -3.553513 41.586556 -1.339114 10.439999 83.974362 -0.000001 -0.000002 0.000004 0.000000 0.000000 0.000003 4.714863 -4.516922 49.238301 -1.408773 11.737844 71.643220 0.000000 0.000009 -0.000002 -0.000001 0.000001 -0.000000 -23.221183 4.410900 1.634150 16.866165 -2.446935 -0.010055 19.601431 -0.234777 -3.912848 -66.428200 -3.936238 -3.040373 -0.000000 0.000001 -0.000000 -87.159716 -0.120073 -6.288184 79.558002 -3.356121 -0.483660 -28.768087 -2.347752 7.439725 -25.883232 -10.336801 -2.194470 0.000001 -0.000001 -0.000000 
